<svg width="164" height="164" viewBox="0 0 164 164" fill="none" xmlns="http://www.w3.org/2000/svg">
<path d="M77.6484 94.9048C80.1095 93.4839 83.1396 93.4752 85.6088 94.882L127.04 118.488C132.373 121.526 139 117.675 139 111.537L139 52.4647C139 46.3266 132.373 42.4751 127.04 45.5137L85.6087 69.1185C83.1396 70.5253 80.1095 70.5166 77.6485 69.0958L37 45.6276C31.6666 42.5484 25 46.3974 25 52.5558L25 111.445C25 117.604 31.6667 121.453 37.0001 118.374L77.6484 94.9048Z" fill="url(#paint0_linear_3_91)"/>
<path d="M72.1099 74.9534C66.4933 77.9723 66.4933 86.0277 72.1099 89.0466L127.212 118.664C132.542 121.529 139 117.668 139 111.618L139 52.3824C139 46.3316 132.542 42.4711 127.212 45.3358L72.1099 74.9534Z" fill="url(#paint1_linear_3_91)"/>
<defs>
<linearGradient id="paint0_linear_3_91" x1="21" y1="82.001" x2="79" y2="82.001" gradientUnits="userSpaceOnUse">
<stop stop-color="#5BACFF"/>
<stop offset="1" stop-color="#1043C9"/>
</linearGradient>
<linearGradient id="paint1_linear_3_91" x1="78.5" y1="82" x2="139" y2="82" gradientUnits="userSpaceOnUse">
<stop stop-color="#1043C9"/>
<stop offset="1" stop-color="#0E39A9"/>
</linearGradient>
</defs>
</svg>
